<svg viewBox="0 0 32 32" xmlns="http://www.w3.org/2000/svg">
  <circle cx="16" cy="16" r="16" fill="#2775CA"/>
  <path d="M20.4 18.4c0-2-1.2-2.7-3.6-3-.2 0-.3 0-.5-.1-1.7-.2-2-.7-2-1.4 0-.8.5-1.3 1.6-1.3 1 0 1.5.3 1.7 1.1.1.1.2.2.3.2h.7c.2 0 .3-.1.3-.3v-.1c-.2-1-1-1.8-2.1-1.9v-1.2c0-.2-.1-.3-.4-.3h-.6c-.2 0-.3.1-.4.3v1.2c-1.5.2-2.5 1.2-2.5 2.5 0 1.9 1.2 2.6 3.6 2.9.2 0 .3 0 .5.1 1.5.2 1.9.6 1.9 1.5 0 .9-.7 1.5-1.8 1.5-1.4 0-1.9-.6-2.1-1.2 0-.2-.2-.2-.3-.2h-.7c-.2 0-.3.1-.3.3v.1c.3 1.1 1 1.9 2.7 2.1v1.2c0 .2.1.3.4.3h.6c.2 0 .3-.1.4-.3v-1.2c1.5-.3 2.5-1.3 2.5-2.7z" fill="#fff"/>
  <path d="M13.1 24.4c-4.7-1.7-7.1-6.9-5.4-11.5 1-2.6 3-4.6 5.4-5.4.2-.1.3-.2.3-.5v-.6c0-.2-.1-.3-.3-.3h-.1c-5.5 1.8-8.5 7.7-6.7 13.2 1.1 3.3 3.5 5.8 6.7 7 .2.1.4 0 .4-.2v-.6c.1-.2 0-.4-.3-.5v.4zm5.8-18.3c-.2-.1-.4 0-.4.2v.6c0 .2.2.4.3.5 4.7 1.7 7.1 6.9 5.4 11.5-1 2.6-3 4.6-5.4 5.4-.2.1-.3.2-.3.5v.6c0 .2.1.3.3.3h.1c5.5-1.8 8.5-7.7 6.7-13.2-1.1-3.3-3.6-5.8-6.7-7z" fill="#fff"/>
</svg>
